<?xml version="1.0" encoding="UTF-8"?>
<svg width="64" height="64" viewBox="0 0 64 64" fill="none" xmlns="http://www.w3.org/2000/svg">
    <rect width="64" height="64" rx="8" fill="#0066CC"/>
    <path d="M32 16C23.164 16 16 23.164 16 32C16 40.836 23.164 48 32 48C40.836 48 48 40.836 48 32C48 23.164 40.836 16 32 16ZM38 34H34V38C34 39.104 33.104 40 32 40C30.896 40 30 39.104 30 38V34H26C24.896 34 24 33.104 24 32C24 30.896 24.896 30 26 30H30V26C30 24.896 30.896 24 32 24C33.104 24 34 24.896 34 26V30H38C39.104 30 40 30.896 40 32C40 33.104 39.104 34 38 34Z" fill="white"/>
</svg> 